<svg id="Layer_1" data-name="Layer 1" xmlns="http://www.w3.org/2000/svg" xmlns:xlink="http://www.w3.org/1999/xlink" viewBox="0 0 747 694.95"><defs><style>.cls-1,.cls-2{fill:#b3b3b3;stroke:#b3b3b3;stroke-miterlimit:10;}.cls-2{font-size:638.41px;font-family:MyriadPro-Regular, Myriad Pro;}</style></defs><title>EAS</title><rect class="cls-1" x="0.5" y="221.83" width="148" height="40"/><rect class="cls-1" x="0.5" y="364.33" width="148" height="41.5"/><rect class="cls-1" x="0.5" y="504.83" width="148" height="40"/><rect class="cls-1" x="-72.5" y="308.25" width="301" height="40" transform="translate(-307.75 463.08) rotate(-90)"/><path class="cls-1" d="M517.12,485.91l53.38.09L411.35,162.33l-27.16,55.19L252.32,485.46l29.61.05a3.62,3.62,0,0,1,.2-.33L397.69,244.12l61.66,121.49,57.36,119.64A4.88,4.88,0,0,1,517.12,485.91Z" transform="translate(-57.5 56.83)"/><path class="cls-1" d="M282.13,485.18,397.69,244.12l-13.5-26.6-15.33-30.2L230.77,485.71h51A4.6,4.6,0,0,1,282.13,485.18Z" transform="translate(-57.5 56.83)"/><path class="cls-1" d="M517,485.71h3.3l-61-120.1,57.36,119.64A3.64,3.64,0,0,1,517,485.71Z" transform="translate(-57.5 56.83)"/><polygon class="cls-1" points="401.85 422.44 340.19 300.95 341.9 297.38 401.85 422.44"/><text class="cls-2" transform="translate(503.04 534.85) scale(0.96 1)">s</text><image width="512" height="512" transform="translate(209.94 261.89) scale(0.48)" xlink:href="takeoff-the-plane.png"/></svg>